<svg width="91" height="91" viewBox="0 0 91 91" fill="none" xmlns="http://www.w3.org/2000/svg">
<path d="M59.0001 36.179V43.2699H51.9092" stroke="black" stroke-linecap="round" stroke-linejoin="round"/>
<path d="M33 55.0882V47.9973H40.0909" stroke="black" stroke-linecap="round" stroke-linejoin="round"/>
<path d="M35.9664 42.0881C36.5657 40.3943 37.5844 38.88 38.9274 37.6863C40.2703 36.4927 41.8937 35.6587 43.6462 35.2622C45.3986 34.8657 47.2229 34.9196 48.9489 35.4188C50.6748 35.9181 52.2462 36.8464 53.5164 38.1172L59 43.2699M33 47.9972L38.4836 53.1499C39.7538 54.4207 41.3252 55.3491 43.0511 55.8483C44.7771 56.3475 46.6014 56.4014 48.3538 56.0049C50.1063 55.6084 51.7297 54.7744 53.0726 53.5808C54.4156 52.3872 55.4343 50.8728 56.0336 49.179" stroke="black" stroke-linecap="round" stroke-linejoin="round"/>
<path d="M30.7907 76.2522L27.4983 80.7898L26.9006 80.5475L30.3284 75.8474L31.4193 76.2896L30.5447 81.816L33.7729 77.2437L34.8488 77.6799L34.036 83.4402L33.4457 83.2009L34.2216 77.6605L31.01 82.2134L29.9266 81.7742L30.7907 76.2522Z" fill="black"/>
<path d="M21.8348 75.298C21.4578 75.0035 21.2511 74.6307 21.2148 74.1795C21.1742 73.725 21.3094 73.2986 21.6204 72.9004L23.0992 71.0069L23.5758 71.3791L22.1416 73.2154C21.92 73.4993 21.8279 73.8093 21.8654 74.1454C21.8996 74.4859 22.0544 74.7636 22.3297 74.9787C22.6305 75.2135 22.9527 75.3118 23.2964 75.2733C23.6402 75.2349 23.9245 75.0717 24.1495 74.7836L25.5837 72.9473L26.0602 73.3195L22.3879 78.0215L21.9114 77.6493L23.7178 75.3364C23.4171 75.538 23.098 75.6366 22.7604 75.6322C22.4229 75.6277 22.1144 75.5163 21.8348 75.298Z" fill="black"/>
<path d="M15.8981 69.4673C15.5015 68.9793 15.3492 68.4382 15.4412 67.844C15.5256 67.249 15.8354 66.7652 16.3706 66.3926L18.6333 69.1769C18.9232 68.8859 19.0805 68.5468 19.1052 68.1596C19.1224 67.7717 19.0005 67.4171 18.7394 67.0959C18.5395 66.8498 18.301 66.68 18.0241 66.5864C17.7472 66.4928 17.4638 66.4807 17.1739 66.5501L17.0174 66.0124C17.4054 65.9188 17.7916 65.9338 18.1762 66.0577C18.5566 66.1848 18.8858 66.4195 19.1637 66.7615C19.5468 67.2328 19.7124 67.7562 19.6606 68.3316C19.6012 68.9063 19.3379 69.3834 18.8707 69.7631C18.4036 70.1427 17.8865 70.3032 17.3194 70.2446C16.7481 70.1894 16.2744 69.9303 15.8981 69.4673ZM16.3173 69.1267C16.5512 69.4145 16.8464 69.5902 17.2028 69.6537C17.5592 69.7173 17.9033 69.6593 18.2352 69.4796L16.3691 67.1834C16.1228 67.4598 15.9943 67.7789 15.9836 68.1408C15.9654 68.5019 16.0766 68.8305 16.3173 69.1267Z" fill="black"/>
<path d="M12.0507 63.5903L13.0196 63.0771C12.541 63.1725 12.153 63.1347 11.8556 62.9638C11.5558 62.7881 11.3474 62.5153 11.2305 62.1453L11.7506 61.8698C11.8742 62.3214 12.1196 62.6354 12.4868 62.8119C12.8468 62.9862 13.2167 62.9727 13.5967 62.7714L15.6557 61.6807L15.9387 62.215L12.3337 64.1247L12.0507 63.5903Z" fill="black"/>
<path d="M9.01867 56.5306C8.83772 55.9284 8.90287 55.37 9.21413 54.8556C9.51869 54.3375 9.98936 54.0081 10.6261 53.8673L11.6585 57.3033C12.0373 57.1446 12.3119 56.8909 12.4821 56.5423C12.6457 56.1901 12.6679 55.8158 12.5489 55.4195C12.4576 55.1158 12.3018 54.868 12.0814 54.676C11.8609 54.4841 11.6035 54.365 11.309 54.3188L11.369 53.762C11.7634 53.8231 12.1148 53.9841 12.4233 54.245C12.7266 54.5074 12.9417 54.8497 13.0685 55.2718C13.2433 55.8535 13.1972 56.4005 12.9302 56.9128C12.6565 57.4216 12.2314 57.7626 11.6549 57.9358C11.0783 58.109 10.539 58.0606 10.037 57.7905C9.52977 57.522 9.19034 57.102 9.01867 56.5306ZM9.536 56.3752C9.64271 56.7304 9.84875 57.0052 10.1541 57.1997C10.4595 57.3942 10.7998 57.4715 11.1751 57.4317L10.3237 54.598C9.9907 54.7598 9.75038 55.0059 9.60276 55.3365C9.44845 55.6635 9.42619 56.0097 9.536 56.3752Z" fill="black"/>
<path d="M11.2863 34.1486L8 32.7915L8.24002 32.2103L11.5263 33.5673C11.9536 33.7437 12.3658 33.7453 12.763 33.5721C13.1552 33.3967 13.4447 33.083 13.6314 32.631C13.8222 32.1689 13.8394 31.7399 13.6831 31.3439C13.5288 30.9429 13.2356 30.6532 12.8034 30.4747L9.51707 29.1177L9.75709 28.5364L13.0434 29.8935C13.6296 30.1356 14.0284 30.5358 14.2398 31.0941C14.4483 31.6454 14.4243 32.2315 14.1679 32.8525C13.9115 33.4735 13.5149 33.9058 12.9782 34.1494C12.4365 34.3909 11.8725 34.3906 11.2863 34.1486Z" fill="black"/>
<path d="M13.7279 24.8344L14.6363 25.4484C14.3272 25.0707 14.1782 24.7105 14.1893 24.3677C14.2035 24.0205 14.3463 23.7083 14.6179 23.4313L15.1055 23.7609C14.7651 24.0822 14.6032 24.4464 14.62 24.8535C14.6353 25.2531 14.8211 25.5733 15.1774 25.8141L17.1077 27.1189L16.7691 27.6199L13.3893 25.3353L13.7279 24.8344Z" fill="black"/>
<path d="M18.8387 18.5409C19.2347 18.1541 19.7062 17.9791 20.2531 18.0159C20.8001 18.0452 21.2839 18.2752 21.7045 18.7058C22.1289 19.1403 22.3492 19.6313 22.3656 20.1789C22.3858 20.7226 22.1979 21.1879 21.8018 21.5747C21.5134 21.8564 21.177 22.0235 20.7925 22.0759C20.408 22.1208 20.0326 22.0518 19.666 21.8688L20.5054 22.7282L20.0728 23.1507L15.9042 18.8826L16.3368 18.4601L18.4999 20.6749C18.3219 20.3003 18.2618 19.9233 18.3194 19.5439C18.3772 19.1569 18.5503 18.8226 18.8387 18.5409ZM21.2863 21.2893C21.5863 20.9964 21.7349 20.6446 21.7321 20.2341C21.7256 19.8197 21.5683 19.4549 21.2604 19.1396C20.9524 18.8243 20.5933 18.6604 20.1829 18.648C19.7688 18.6317 19.4118 18.77 19.1119 19.0629C18.7889 19.3784 18.6249 19.7451 18.62 20.1632C18.6151 20.5812 18.7685 20.9498 19.0802 21.269C19.3919 21.5881 19.7568 21.7502 20.1748 21.7551C20.5928 21.76 20.9634 21.6048 21.2863 21.2893Z" fill="black"/>
<path d="M25.3968 13.439C25.7913 13.1981 26.1769 13.1074 26.5534 13.1672C26.9272 13.2223 27.2289 13.4379 27.4587 13.8141L28.9 16.1741L28.384 16.4893L27.8041 15.5398C27.9848 16.3615 27.738 16.9783 27.0637 17.3901C26.7472 17.5834 26.4348 17.6546 26.1265 17.6035C25.8228 17.5497 25.5827 17.3783 25.4062 17.0893C25.2157 16.7774 25.181 16.4679 25.3021 16.1609C25.4278 15.8511 25.6606 15.5672 26.0006 15.3092L26.7235 14.7449C26.9956 14.5409 27.0589 14.3196 26.9132 14.0811C26.7815 13.8655 26.6022 13.742 26.3752 13.7106C26.1482 13.6792 25.9108 13.7391 25.6631 13.8904C25.4154 14.0417 25.2399 14.2339 25.1367 14.467C25.0334 14.7001 25.0281 14.9647 25.1208 15.2608L24.5345 15.43C24.4069 15.0355 24.4224 14.6639 24.581 14.3151C24.7442 13.9636 25.0161 13.6715 25.3968 13.439ZM26.9297 16.8768C27.2829 16.6611 27.505 16.3648 27.5961 15.988C27.6843 15.6066 27.6318 15.2577 27.4385 14.9412L27.262 14.6522C27.2818 14.829 27.1763 15.0068 26.9454 15.1856L26.2458 15.7262C26.0516 15.8826 25.9211 16.0505 25.8543 16.2299C25.7847 16.4046 25.8018 16.5769 25.9054 16.7466C26.0063 16.9117 26.1494 17.0069 26.3349 17.0322C26.525 17.0547 26.7232 17.0029 26.9297 16.8768Z" fill="black"/>
<path d="M33.0117 9.86096C33.4642 9.70573 33.8894 9.73602 34.2873 9.95182C34.6903 10.1659 34.9738 10.5118 35.1377 10.9897L35.9173 13.2623L35.3454 13.4585L34.5893 11.2546C34.4725 10.914 34.263 10.6676 33.9608 10.5156C33.6568 10.3585 33.3397 10.3366 33.0092 10.4499C32.6482 10.5738 32.39 10.7902 32.2347 11.0992C32.0793 11.4082 32.0609 11.7356 32.1795 12.0813L32.9356 14.2852L32.3636 14.4814L31.0398 10.6226L31.6118 10.4264L31.9519 11.4178C31.947 11.0558 32.0386 10.7346 32.2265 10.4542C32.4144 10.1738 32.6762 9.97607 33.0117 9.86096Z" fill="black"/>
<path d="M62.0608 10.0936L59.9909 15.3439L59.4284 15.1221L61.4421 10.0143L57.8533 14.5012L56.8182 14.0931L57.2657 8.34179L55.2431 13.4721L54.6806 13.2503L56.7505 8L57.8531 8.43468L57.4112 14.1276L60.9733 9.66481L62.0608 10.0936Z" fill="black"/>
<path d="M67.3822 15.086C67.89 15.4569 68.1751 15.9414 68.2374 16.5394C68.3073 17.1363 68.1309 17.683 67.7082 18.1797L64.8111 16.0634C64.6049 16.4186 64.5391 16.7865 64.6138 17.1672C64.696 17.5468 64.9041 17.8586 65.2383 18.1027C65.4944 18.2898 65.7682 18.3933 66.0598 18.4133C66.3514 18.4333 66.6286 18.3728 66.8913 18.2319L67.1795 18.712C66.8282 18.9014 66.4508 18.9851 66.0474 18.9633C65.6472 18.9372 65.2691 18.7942 64.9132 18.5342C64.4228 18.1759 64.1293 17.712 64.0329 17.1423C63.944 16.5715 64.0771 16.043 64.4322 15.5569C64.7873 15.0708 65.2465 14.7839 65.8098 14.6962C66.3763 14.6041 66.9004 14.7341 67.3822 15.086ZM67.0635 15.5222C66.7641 15.3034 66.4339 15.2087 66.073 15.2379C65.7122 15.2672 65.3942 15.411 65.119 15.6692L67.5083 17.4146C67.6761 17.0846 67.7191 16.7432 67.6373 16.3906C67.5629 16.0367 67.3717 15.7473 67.0635 15.5222Z" fill="black"/>
<path d="M73.6399 20.8222C74.052 21.2972 74.2216 21.8331 74.1488 22.43C74.0836 23.0273 73.7895 23.5209 73.2665 23.9105L70.9155 21.2004C70.6351 21.5006 70.4888 21.8445 70.4765 22.2323C70.4718 22.6206 70.6051 22.9711 70.8763 23.2837C71.0841 23.5232 71.3279 23.6853 71.6076 23.7699C71.8874 23.8546 72.171 23.8575 72.4585 23.7789L72.6322 24.3113C72.2475 24.4174 71.861 24.4147 71.4726 24.3033C71.0883 24.1884 70.7518 23.9645 70.4629 23.6316C70.0649 23.1728 69.8826 22.655 69.9159 22.0782C69.9568 21.502 70.2046 21.0166 70.6593 20.6221C71.114 20.2277 71.6257 20.0506 72.1944 20.0909C72.7671 20.1278 73.2489 20.3715 73.6399 20.8222ZM73.2319 21.1761C72.9888 20.896 72.6882 20.7299 72.3299 20.6778C71.9716 20.6257 71.6295 20.6948 71.3036 20.885L73.2426 23.1201C73.4799 22.8359 73.5981 22.5128 73.5971 22.1508C73.6037 21.7893 73.4819 21.4644 73.2319 21.1761Z" fill="black"/>
<path d="M77.2111 26.8592L76.761 26.0578L77.239 25.7894L77.6891 26.5907L78.9614 25.876L79.4192 26.3124L77.9852 27.1179L78.5933 28.2004L78.1153 28.4689L77.5072 27.3864L75.6374 28.4367C75.375 28.5841 75.2192 28.7456 75.1699 28.9212C75.1206 29.0969 75.1683 29.3136 75.3131 29.5713L75.5144 29.9298L75.0365 30.1983L74.8351 29.8398C74.5955 29.4134 74.5186 29.0404 74.6043 28.7211C74.6926 28.4064 74.9453 28.1319 75.3624 27.8976L77.2111 26.8592Z" fill="black"/>
<path d="M77.454 32.926L77.7637 33.4683C77.3173 33.709 77.1924 34.1223 77.3892 34.7083C77.4885 35.0038 77.6275 35.2236 77.8063 35.3676C77.9919 35.5151 78.1789 35.5572 78.3675 35.4938C78.5611 35.4288 78.6797 35.2926 78.7235 35.0851C78.7689 34.8827 78.7718 34.655 78.7321 34.4018C78.6975 34.1469 78.6647 33.8887 78.6335 33.627C78.6091 33.3687 78.6468 33.1264 78.7466 32.9001C78.848 32.6789 79.0364 32.5221 79.3115 32.4297C79.6376 32.3202 79.9513 32.3679 80.2526 32.5729C80.559 32.7762 80.7841 33.0918 80.9278 33.5198C81.0681 33.9376 81.086 34.3115 80.9814 34.6415C80.8767 34.9715 80.6691 35.2226 80.3584 35.395L80.0513 34.8603C80.4909 34.6162 80.6201 34.2242 80.4387 33.6841C80.3514 33.4242 80.2235 33.2291 80.0549 33.0986C79.8864 32.9681 79.7104 32.9336 79.5269 32.9952C79.3486 33.0551 79.2393 33.1854 79.1989 33.386C79.1654 33.5901 79.1685 33.8187 79.2081 34.0718C79.2495 34.3301 79.2798 34.5892 79.2991 34.8493C79.3252 35.1126 79.2824 35.3566 79.1708 35.5813C79.0608 35.811 78.8632 35.9737 78.5778 36.0696C78.2466 36.1808 77.9236 36.122 77.6086 35.8933C77.2936 35.6645 77.06 35.3234 76.9077 34.87C76.7605 34.4318 76.7367 34.0401 76.8362 33.6948C76.9374 33.3546 77.1434 33.0984 77.454 32.926Z" fill="black"/>
<path d="M79.6106 58.1126L78.4304 61.183C77.8631 61.011 77.3999 60.7178 77.041 60.3035C76.6801 59.8941 76.4577 59.4315 76.3739 58.9155C76.2881 58.4046 76.3407 57.9008 76.5316 57.4042C76.8286 56.6315 77.3392 56.0821 78.0634 55.7559C78.7858 55.4347 79.5282 55.4206 80.2908 55.7138C81.0534 56.0069 81.5953 56.5146 81.9165 57.2369C82.2358 57.9643 82.2469 58.7143 81.95 59.4869C81.7359 60.0438 81.4014 60.4795 80.9465 60.7941C80.4966 61.1106 80.0158 61.2828 79.5041 61.3107L79.4838 60.6896C79.9036 60.661 80.2885 60.521 80.6385 60.2698C80.9915 60.0254 81.2481 59.695 81.4081 59.2786C81.6376 58.6816 81.6207 58.0964 81.3574 57.523C81.0991 56.9515 80.6665 56.5491 80.0594 56.3158C79.4523 56.0825 78.859 56.0905 78.2795 56.3399C77.7049 56.5912 77.3029 57.0154 77.0734 57.6124C76.8594 58.1693 76.8581 58.7044 77.0697 59.2176C77.2863 59.7327 77.6427 60.1087 78.139 60.3455L79.0763 57.9072L79.6106 58.1126Z" fill="black"/>
<path d="M76.6358 66.3171L75.7261 65.705C76.0361 66.082 76.1858 66.4419 76.1754 66.7847C76.162 67.132 76.0198 67.4445 75.7488 67.7221L75.2605 67.3935C75.6003 67.0715 75.7613 66.7069 75.7437 66.2999C75.7275 65.9003 75.5411 65.5805 75.1843 65.3404L73.2512 64.0397L73.5888 63.538L76.9734 65.8155L76.6358 66.3171Z" fill="black"/>
<path d="M71.842 72.3216C71.3963 72.7653 70.8733 72.9713 70.2729 72.9396C69.6724 72.9155 69.1599 72.6559 68.7353 72.1609L71.2777 69.6295C70.959 69.3704 70.6058 69.248 70.2181 69.2624C69.8304 69.2843 69.4899 69.4413 69.1966 69.7333C68.9719 69.9571 68.8269 70.2114 68.7617 70.4963C68.6965 70.7812 68.713 71.0644 68.8112 71.3459L68.2919 71.5557C68.1597 71.1791 68.1359 70.7933 68.2203 70.3982C68.3086 70.007 68.5089 69.6558 68.8212 69.3449C69.2516 68.9163 69.7557 68.6989 70.3334 68.6925C70.9111 68.6938 71.4123 68.9077 71.8371 69.3343C72.2618 69.7609 72.4735 70.2592 72.4723 70.8293C72.4749 71.4032 72.2647 71.9007 71.842 72.3216ZM71.4608 71.9388C71.7236 71.6772 71.8687 71.3658 71.8961 71.0048C71.9235 70.6438 71.8311 70.3073 71.619 69.9951L69.5222 72.0828C69.822 72.3001 70.1524 72.3959 70.5135 72.37C70.8746 72.3518 71.1904 72.2081 71.4608 71.9388Z" fill="black"/>
<path d="M65.1995 77.6077C64.666 77.9406 64.1102 78.0245 63.532 77.8595C62.9522 77.7018 62.5106 77.3343 62.2073 76.757L65.251 74.8576C64.9983 74.5338 64.6814 74.3356 64.3003 74.263C63.9175 74.1978 63.5505 74.2747 63.1994 74.4938C62.9303 74.6617 62.7322 74.8772 62.605 75.1403C62.4777 75.4034 62.4305 75.6832 62.4634 75.9794L61.9104 76.0679C61.8657 75.6714 61.9286 75.29 62.0992 74.9238C62.2727 74.5621 62.5463 74.2646 62.9202 74.0313C63.4355 73.7097 63.9754 73.6104 64.5399 73.7333C65.1027 73.8636 65.5435 74.1841 65.8622 74.6948C66.1809 75.2055 66.2759 75.7385 66.1474 76.2939C66.0216 76.8539 65.7057 77.2918 65.1995 77.6077ZM64.9136 77.1494C65.2282 76.9531 65.4392 76.682 65.5466 76.3363C65.6539 75.9905 65.639 75.6418 65.502 75.2902L62.9918 76.8566C63.2354 77.1354 63.5361 77.3026 63.8939 77.3581C64.2499 77.421 64.5898 77.3514 64.9136 77.1494Z" fill="black"/>
<path d="M57.3838 81.3312C56.9316 81.4874 56.5064 81.458 56.108 81.2431C55.7045 81.0299 55.4203 80.6845 55.2554 80.2069L54.471 77.936L55.0425 77.7386L55.8032 79.9409C55.9208 80.2813 56.1308 80.5272 56.4333 80.6786C56.7376 80.8351 57.0548 80.8563 57.3851 80.7423C57.7458 80.6177 58.0035 80.4007 58.1582 80.0914C58.3129 79.782 58.3306 79.4546 58.2113 79.1092L57.4506 76.9068L58.0222 76.7094L59.354 80.5654L58.7825 80.7628L58.4403 79.7721C58.4459 80.1341 58.3551 80.4555 58.1677 80.7363C57.9804 81.0171 57.7191 81.2154 57.3838 81.3312Z" fill="black"/>
</svg>
